<svg xmlns="http://www.w3.org/2000/svg" xmlns:xlink="http://www.w3.org/1999/xlink" id="exQnb1iFSAv1" viewBox="0 0 499.87 351.27" width="499.87" height="351.27"><style><![CDATA[#exQnb1iFSAv39 {animation: exQnb1iFSAv39_c_o 10000ms linear infinite normal forwards}@keyframes exQnb1iFSAv39_c_o { 0% {opacity: 0} 44% {opacity: 0} 52% {opacity: 1} 100% {opacity: 1}} #exQnb1iFSAv42 {animation: exQnb1iFSAv42_s_do 10000ms linear infinite normal forwards}@keyframes exQnb1iFSAv42_s_do { 0% {stroke-dashoffset: 846.46} 50% {stroke-dashoffset: 0} 100% {stroke-dashoffset: 0}} #exQnb1iFSAv43 {animation: exQnb1iFSAv43_c_o 10000ms linear infinite normal forwards}@keyframes exQnb1iFSAv43_c_o { 0% {opacity: 0} 44% {opacity: 0} 52% {opacity: 1} 100% {opacity: 1}} #exQnb1iFSAv53_ts {animation: exQnb1iFSAv53_ts__ts 10000ms linear infinite normal forwards}@keyframes exQnb1iFSAv53_ts__ts { 0% {transform: translate(221.738587px,103.871853px) scale(0,0)} 29% {transform: translate(221.738587px,103.871853px) scale(0,0)} 34% {transform: translate(221.738587px,103.871853px) scale(1,1)} 100% {transform: translate(221.738587px,103.871853px) scale(1,1)}} #exQnb1iFSAv56_ts {animation: exQnb1iFSAv56_ts__ts 10000ms linear infinite normal forwards}@keyframes exQnb1iFSAv56_ts__ts { 0% {transform: translate(221.871095px,102.827651px) rotate(-76.484878deg) scale(0.5,0.5)} 29% {transform: translate(221.871095px,102.827651px) rotate(-76.484878deg) scale(0.5,0.5)} 41% {transform: translate(221.871095px,102.827651px) rotate(-76.484878deg) scale(2,2)} 42% {transform: translate(221.871095px,102.827651px) rotate(-76.484878deg) scale(0.5,0.5)} 54% {transform: translate(221.871095px,102.827651px) rotate(-76.484878deg) scale(2,2)} 55% {transform: translate(221.871095px,102.827651px) rotate(-76.484878deg) scale(0.5,0.5)} 67% {transform: translate(221.871095px,102.827651px) rotate(-76.484878deg) scale(2,2)} 68% {transform: translate(221.871095px,102.827651px) rotate(-76.484878deg) scale(0.5,0.5)} 80% {transform: translate(221.871095px,102.827651px) rotate(-76.484878deg) scale(2,2)} 81% {transform: translate(221.871095px,102.827651px) rotate(-76.484878deg) scale(0.5,0.5)} 93% {transform: translate(221.871095px,102.827651px) rotate(-76.484878deg) scale(2,2)} 94% {transform: translate(221.871095px,102.827651px) rotate(-76.484878deg) scale(0.5,0.5)} 100% {transform: translate(221.871095px,102.827651px) rotate(-76.484878deg) scale(1.25,1.25)}} #exQnb1iFSAv56 {animation: exQnb1iFSAv56_c_o 10000ms linear infinite normal forwards}@keyframes exQnb1iFSAv56_c_o { 0% {opacity: 0} 29% {opacity: 0} 32% {opacity: 0.15} 38% {opacity: 0.15} 41% {opacity: 0} 42% {opacity: 0} 45% {opacity: 0.15} 51% {opacity: 0.15} 54% {opacity: 0} 55% {opacity: 0} 58% {opacity: 0.15} 64% {opacity: 0.15} 67% {opacity: 0} 68% {opacity: 0} 71% {opacity: 0.15} 77% {opacity: 0.15} 80% {opacity: 0} 81% {opacity: 0} 84% {opacity: 0.15} 90% {opacity: 0.15} 93% {opacity: 0} 94% {opacity: 0} 97% {opacity: 0.15} 100% {opacity: 0.15}} #exQnb1iFSAv66_ts {animation: exQnb1iFSAv66_ts__ts 10000ms linear infinite normal forwards}@keyframes exQnb1iFSAv66_ts__ts { 0% {transform: translate(131.658586px,59.407761px) scale(0,0)} 24% {transform: translate(131.658586px,59.407761px) scale(0,0)} 29% {transform: translate(131.658586px,59.407761px) scale(1,1)} 100% {transform: translate(131.658586px,59.407761px) scale(1,1)}} #exQnb1iFSAv69_ts {animation: exQnb1iFSAv69_ts__ts 10000ms linear infinite normal forwards}@keyframes exQnb1iFSAv69_ts__ts { 0% {transform: translate(221.871095px,102.827651px) rotate(-76.484878deg) scale(0.5,0.5)} 24% {transform: translate(221.871095px,102.827651px) rotate(-76.484878deg) scale(0.5,0.5)} 36% {transform: translate(221.871095px,102.827651px) rotate(-76.484878deg) scale(2,2)} 37% {transform: translate(221.871095px,102.827651px) rotate(-76.484878deg) scale(0.5,0.5)} 49% {transform: translate(221.871095px,102.827651px) rotate(-76.484878deg) scale(2,2)} 50% {transform: translate(221.871095px,102.827651px) rotate(-76.484878deg) scale(0.5,0.5)} 62% {transform: translate(221.871095px,102.827651px) rotate(-76.484878deg) scale(2,2)} 63% {transform: translate(221.871095px,102.827651px) rotate(-76.484878deg) scale(0.5,0.5)} 75% {transform: translate(221.871095px,102.827651px) rotate(-76.484878deg) scale(2,2)} 76% {transform: translate(221.871095px,102.827651px) rotate(-76.484878deg) scale(0.5,0.5)} 88% {transform: translate(221.871095px,102.827651px) rotate(-76.484878deg) scale(2,2)} 89% {transform: translate(221.871095px,102.827651px) rotate(-76.484878deg) scale(0.5,0.5)} 100% {transform: translate(221.871095px,102.827651px) rotate(-76.484878deg) scale(1.875,1.875)}} #exQnb1iFSAv69 {animation: exQnb1iFSAv69_c_o 10000ms linear infinite normal forwards}@keyframes exQnb1iFSAv69_c_o { 0% {opacity: 0} 24% {opacity: 0} 27% {opacity: 0.15} 33% {opacity: 0.15} 36% {opacity: 0} 37% {opacity: 0} 40% {opacity: 0.15} 46% {opacity: 0.15} 49% {opacity: 0} 50% {opacity: 0} 53% {opacity: 0.15} 59% {opacity: 0.15} 62% {opacity: 0} 63% {opacity: 0} 66% {opacity: 0.15} 72% {opacity: 0.15} 75% {opacity: 0} 76% {opacity: 0} 79% {opacity: 0.15} 85% {opacity: 0.15} 88% {opacity: 0} 89% {opacity: 0} 92% {opacity: 0.15} 98% {opacity: 0.15} 100% {opacity: 0.05}} #exQnb1iFSAv79_ts {animation: exQnb1iFSAv79_ts__ts 10000ms linear infinite normal forwards}@keyframes exQnb1iFSAv79_ts__ts { 0% {transform: translate(45.669883px,73.348084px) scale(0,0)} 16% {transform: translate(45.669883px,73.348084px) scale(0,0)} 21% {transform: translate(45.669883px,73.348084px) scale(1,1)} 100% {transform: translate(45.669883px,73.348084px) scale(1,1)}} #exQnb1iFSAv82_ts {animation: exQnb1iFSAv82_ts__ts 10000ms linear infinite normal forwards}@keyframes exQnb1iFSAv82_ts__ts { 0% {transform: translate(221.871095px,102.827651px) rotate(-76.484878deg) scale(0.5,0.5)} 16% {transform: translate(221.871095px,102.827651px) rotate(-76.484878deg) scale(0.5,0.5)} 28% {transform: translate(221.871095px,102.827651px) rotate(-76.484878deg) scale(2,2)} 29% {transform: translate(221.871095px,102.827651px) rotate(-76.484878deg) scale(0.5,0.5)} 41% {transform: translate(221.871095px,102.827651px) rotate(-76.484878deg) scale(2,2)} 42% {transform: translate(221.871095px,102.827651px) rotate(-76.484878deg) scale(0.5,0.5)} 54% {transform: translate(221.871095px,102.827651px) rotate(-76.484878deg) scale(2,2)} 55% {transform: translate(221.871095px,102.827651px) rotate(-76.484878deg) scale(0.5,0.5)} 67% {transform: translate(221.871095px,102.827651px) rotate(-76.484878deg) scale(2,2)} 68% {transform: translate(221.871095px,102.827651px) rotate(-76.484878deg) scale(0.5,0.5)} 80% {transform: translate(221.871095px,102.827651px) rotate(-76.484878deg) scale(2,2)} 81% {transform: translate(221.871095px,102.827651px) rotate(-76.484878deg) scale(0.5,0.5)} 93% {transform: translate(221.871095px,102.827651px) rotate(-76.484878deg) scale(2,2)} 94% {transform: translate(221.871095px,102.827651px) rotate(-76.484878deg) scale(0.5,0.5)} 100% {transform: translate(221.871095px,102.827651px) rotate(-76.484878deg) scale(1.25,1.25)}} #exQnb1iFSAv82 {animation: exQnb1iFSAv82_c_o 10000ms linear infinite normal forwards}@keyframes exQnb1iFSAv82_c_o { 0% {opacity: 0} 16% {opacity: 0} 19% {opacity: 0.15} 25% {opacity: 0.15} 28% {opacity: 0} 29% {opacity: 0} 32% {opacity: 0.15} 38% {opacity: 0.15} 41% {opacity: 0} 42% {opacity: 0} 45% {opacity: 0.15} 51% {opacity: 0.15} 54% {opacity: 0} 55% {opacity: 0} 58% {opacity: 0.15} 64% {opacity: 0.15} 67% {opacity: 0} 68% {opacity: 0} 71% {opacity: 0.15} 77% {opacity: 0.15} 80% {opacity: 0} 81% {opacity: 0} 84% {opacity: 0.15} 90% {opacity: 0.15} 93% {opacity: 0} 94% {opacity: 0} 97% {opacity: 0.15} 100% {opacity: 0.15}} #exQnb1iFSAv92_ts {animation: exQnb1iFSAv92_ts__ts 10000ms linear infinite normal forwards}@keyframes exQnb1iFSAv92_ts__ts { 0% {transform: translate(108.558524px,116.539665px) scale(0,0)} 11% {transform: translate(108.558524px,116.539665px) scale(0,0)} 16% {transform: translate(108.558524px,116.539665px) scale(1,1)} 100% {transform: translate(108.558524px,116.539665px) scale(1,1)}} #exQnb1iFSAv95_ts {animation: exQnb1iFSAv95_ts__ts 10000ms linear infinite normal forwards}@keyframes exQnb1iFSAv95_ts__ts { 0% {transform: translate(221.871095px,102.827651px) rotate(-76.484878deg) scale(0.5,0.5)} 11% {transform: translate(221.871095px,102.827651px) rotate(-76.484878deg) scale(0.5,0.5)} 23% {transform: translate(221.871095px,102.827651px) rotate(-76.484878deg) scale(2,2)} 24% {transform: translate(221.871095px,102.827651px) rotate(-76.484878deg) scale(0.5,0.5)} 36% {transform: translate(221.871095px,102.827651px) rotate(-76.484878deg) scale(2,2)} 37% {transform: translate(221.871095px,102.827651px) rotate(-76.484878deg) scale(0.5,0.5)} 49% {transform: translate(221.871095px,102.827651px) rotate(-76.484878deg) scale(2,2)} 50% {transform: translate(221.871095px,102.827651px) rotate(-76.484878deg) scale(0.5,0.5)} 62% {transform: translate(221.871095px,102.827651px) rotate(-76.484878deg) scale(2,2)} 63% {transform: translate(221.871095px,102.827651px) rotate(-76.484878deg) scale(0.5,0.5)} 75% {transform: translate(221.871095px,102.827651px) rotate(-76.484878deg) scale(2,2)} 76% {transform: translate(221.871095px,102.827651px) rotate(-76.484878deg) scale(0.5,0.5)} 88% {transform: translate(221.871095px,102.827651px) rotate(-76.484878deg) scale(2,2)} 89% {transform: translate(221.871095px,102.827651px) rotate(-76.484878deg) scale(0.5,0.5)} 100% {transform: translate(221.871095px,102.827651px) rotate(-76.484878deg) scale(1.875,1.875)}} #exQnb1iFSAv95 {animation: exQnb1iFSAv95_c_o 10000ms linear infinite normal forwards}@keyframes exQnb1iFSAv95_c_o { 0% {opacity: 0} 11% {opacity: 0} 14% {opacity: 0.15} 20% {opacity: 0.15} 23% {opacity: 0} 24% {opacity: 0} 27% {opacity: 0.15} 33% {opacity: 0.15} 36% {opacity: 0} 37% {opacity: 0} 40% {opacity: 0.15} 46% {opacity: 0.15} 49% {opacity: 0} 50% {opacity: 0} 53% {opacity: 0.15} 59% {opacity: 0.15} 62% {opacity: 0} 63% {opacity: 0} 66% {opacity: 0.15} 72% {opacity: 0.15} 75% {opacity: 0} 76% {opacity: 0} 79% {opacity: 0.15} 85% {opacity: 0.15} 88% {opacity: 0} 89% {opacity: 0} 92% {opacity: 0.15} 98% {opacity: 0.15} 100% {opacity: 0.05}} #exQnb1iFSAv105_ts {animation: exQnb1iFSAv105_ts__ts 10000ms linear infinite normal forwards}@keyframes exQnb1iFSAv105_ts__ts { 0% {transform: translate(53.376456px,227.886882px) scale(0,0)} 3% {transform: translate(53.376456px,227.886882px) scale(0,0)} 8% {transform: translate(53.376456px,227.886882px) scale(1,1)} 100% {transform: translate(53.376456px,227.886882px) scale(1,1)}} #exQnb1iFSAv108_ts {animation: exQnb1iFSAv108_ts__ts 10000ms linear infinite normal forwards}@keyframes exQnb1iFSAv108_ts__ts { 0% {transform: translate(221.871095px,102.827651px) rotate(-76.484878deg) scale(0.5,0.5)} 3% {transform: translate(221.871095px,102.827651px) rotate(-76.484878deg) scale(0.5,0.5)} 15% {transform: translate(221.871095px,102.827651px) rotate(-76.484878deg) scale(2,2)} 16% {transform: translate(221.871095px,102.827651px) rotate(-76.484878deg) scale(0.5,0.5)} 28% {transform: translate(221.871095px,102.827651px) rotate(-76.484878deg) scale(2,2)} 29% {transform: translate(221.871095px,102.827651px) rotate(-76.484878deg) scale(0.5,0.5)} 41% {transform: translate(221.871095px,102.827651px) rotate(-76.484878deg) scale(2,2)} 42% {transform: translate(221.871095px,102.827651px) rotate(-76.484878deg) scale(0.5,0.5)} 54% {transform: translate(221.871095px,102.827651px) rotate(-76.484878deg) scale(2,2)} 55% {transform: translate(221.871095px,102.827651px) rotate(-76.484878deg) scale(0.5,0.5)} 67% {transform: translate(221.871095px,102.827651px) rotate(-76.484878deg) scale(2,2)} 68% {transform: translate(221.871095px,102.827651px) rotate(-76.484878deg) scale(0.5,0.5)} 80% {transform: translate(221.871095px,102.827651px) rotate(-76.484878deg) scale(2,2)} 81% {transform: translate(221.871095px,102.827651px) rotate(-76.484878deg) scale(0.5,0.5)} 93% {transform: translate(221.871095px,102.827651px) rotate(-76.484878deg) scale(2,2)} 94% {transform: translate(221.871095px,102.827651px) rotate(-76.484878deg) scale(0.5,0.5)} 100% {transform: translate(221.871095px,102.827651px) rotate(-76.484878deg) scale(1.25,1.25)}} #exQnb1iFSAv108 {animation: exQnb1iFSAv108_c_o 10000ms linear infinite normal forwards}@keyframes exQnb1iFSAv108_c_o { 0% {opacity: 0} 3% {opacity: 0} 6% {opacity: 0.15} 12% {opacity: 0.15} 15% {opacity: 0} 16% {opacity: 0} 19% {opacity: 0.15} 25% {opacity: 0.15} 28% {opacity: 0} 29% {opacity: 0} 32% {opacity: 0.15} 38% {opacity: 0.15} 41% {opacity: 0} 42% {opacity: 0} 45% {opacity: 0.15} 51% {opacity: 0.15} 54% {opacity: 0} 55% {opacity: 0} 58% {opacity: 0.15} 64% {opacity: 0.15} 67% {opacity: 0} 68% {opacity: 0} 71% {opacity: 0.15} 77% {opacity: 0.15} 80% {opacity: 0} 81% {opacity: 0} 84% {opacity: 0.15} 90% {opacity: 0.15} 93% {opacity: 0} 94% {opacity: 0} 97% {opacity: 0.15} 100% {opacity: 0.15}} #exQnb1iFSAv118_ts {animation: exQnb1iFSAv118_ts__ts 10000ms linear infinite normal forwards}@keyframes exQnb1iFSAv118_ts__ts { 0% {transform: translate(170.948576px,196.436794px) scale(0,0)} 5% {transform: translate(170.948576px,196.436794px) scale(1,1)} 100% {transform: translate(170.948576px,196.436794px) scale(1,1)}} #exQnb1iFSAv121_ts {animation: exQnb1iFSAv121_ts__ts 10000ms linear infinite normal forwards}@keyframes exQnb1iFSAv121_ts__ts { 0% {transform: translate(221.871095px,102.827651px) rotate(-76.484878deg) scale(0.5,0.5)} 12% {transform: translate(221.871095px,102.827651px) rotate(-76.484878deg) scale(2,2)} 13% {transform: translate(221.871095px,102.827651px) rotate(-76.484878deg) scale(0.5,0.5)} 25% {transform: translate(221.871095px,102.827651px) rotate(-76.484878deg) scale(2,2)} 26% {transform: translate(221.871095px,102.827651px) rotate(-76.484878deg) scale(0.5,0.5)} 38% {transform: translate(221.871095px,102.827651px) rotate(-76.484878deg) scale(2,2)} 39% {transform: translate(221.871095px,102.827651px) rotate(-76.484878deg) scale(0.5,0.5)} 51% {transform: translate(221.871095px,102.827651px) rotate(-76.484878deg) scale(2,2)} 52% {transform: translate(221.871095px,102.827651px) rotate(-76.484878deg) scale(0.5,0.5)} 64% {transform: translate(221.871095px,102.827651px) rotate(-76.484878deg) scale(2,2)} 65% {transform: translate(221.871095px,102.827651px) rotate(-76.484878deg) scale(0.5,0.5)} 77% {transform: translate(221.871095px,102.827651px) rotate(-76.484878deg) scale(2,2)} 78% {transform: translate(221.871095px,102.827651px) rotate(-76.484878deg) scale(0.5,0.5)} 90% {transform: translate(221.871095px,102.827651px) rotate(-76.484878deg) scale(2,2)} 91% {transform: translate(221.871095px,102.827651px) rotate(-76.484878deg) scale(0.5,0.5)} 100% {transform: translate(221.871095px,102.827651px) rotate(-76.484878deg) scale(1.625,1.625)}} #exQnb1iFSAv121 {animation: exQnb1iFSAv121_c_o 10000ms linear infinite normal forwards}@keyframes exQnb1iFSAv121_c_o { 0% {opacity: 0} 3% {opacity: 0.15} 9% {opacity: 0.15} 12% {opacity: 0} 13% {opacity: 0} 16% {opacity: 0.15} 22% {opacity: 0.15} 25% {opacity: 0} 26% {opacity: 0} 29% {opacity: 0.15} 35% {opacity: 0.15} 38% {opacity: 0} 39% {opacity: 0} 42% {opacity: 0.15} 48% {opacity: 0.15} 51% {opacity: 0} 52% {opacity: 0} 55% {opacity: 0.15} 61% {opacity: 0.15} 64% {opacity: 0} 65% {opacity: 0} 68% {opacity: 0.15} 74% {opacity: 0.15} 77% {opacity: 0} 78% {opacity: 0} 81% {opacity: 0.15} 87% {opacity: 0.15} 90% {opacity: 0} 91% {opacity: 0} 94% {opacity: 0.15} 100% {opacity: 0.15}} #exQnb1iFSAv131_ts {animation: exQnb1iFSAv131_ts__ts 10000ms linear infinite normal forwards}@keyframes exQnb1iFSAv131_ts__ts { 0% {transform: translate(242.198508px,235.310546px) scale(0,0)} 42% {transform: translate(242.198508px,235.310546px) scale(0,0)} 47% {transform: translate(242.198508px,235.310546px) scale(1,1)} 100% {transform: translate(242.198508px,235.310546px) scale(1,1)}} #exQnb1iFSAv134_ts {animation: exQnb1iFSAv134_ts__ts 10000ms linear infinite normal forwards}@keyframes exQnb1iFSAv134_ts__ts { 0% {transform: translate(221.871095px,102.827651px) rotate(-76.484878deg) scale(0.5,0.5)} 42% {transform: translate(221.871095px,102.827651px) rotate(-76.484878deg) scale(0.5,0.5)} 54% {transform: translate(221.871095px,102.827651px) rotate(-76.484878deg) scale(2,2)} 55% {transform: translate(221.871095px,102.827651px) rotate(-76.484878deg) scale(0.5,0.5)} 67% {transform: translate(221.871095px,102.827651px) rotate(-76.484878deg) scale(2,2)} 68% {transform: translate(221.871095px,102.827651px) rotate(-76.484878deg) scale(0.5,0.5)} 80% {transform: translate(221.871095px,102.827651px) rotate(-76.484878deg) scale(2,2)} 81% {transform: translate(221.871095px,102.827651px) rotate(-76.484878deg) scale(0.5,0.5)} 93% {transform: translate(221.871095px,102.827651px) rotate(-76.484878deg) scale(2,2)} 94% {transform: translate(221.871095px,102.827651px) rotate(-76.484878deg) scale(0.5,0.5)} 100% {transform: translate(221.871095px,102.827651px) rotate(-76.484878deg) scale(1.25,1.25)}} #exQnb1iFSAv134 {animation: exQnb1iFSAv134_c_o 10000ms linear infinite normal forwards}@keyframes exQnb1iFSAv134_c_o { 0% {opacity: 0} 42% {opacity: 0} 45% {opacity: 0.15} 51% {opacity: 0.15} 54% {opacity: 0} 55% {opacity: 0} 58% {opacity: 0.15} 64% {opacity: 0.15} 67% {opacity: 0} 68% {opacity: 0} 71% {opacity: 0.15} 77% {opacity: 0.15} 80% {opacity: 0} 81% {opacity: 0} 84% {opacity: 0.15} 90% {opacity: 0.15} 93% {opacity: 0} 94% {opacity: 0} 97% {opacity: 0.15} 100% {opacity: 0.15}}]]></style><defs><path id="exQnb1iFSAv2" d="M459.81,344.45h-418.24c-17.94,0-32.48-14.54-32.48-32.48v-270.4c0-17.94,14.54-32.48,32.48-32.48h418.24c17.94,0,32.48,14.54,32.48,32.48v270.39c0,17.94-14.54,32.49-32.48,32.49Z"></path><rect id="exQnb1iFSAv3" width="502.29" height="649.28" rx="0" ry="0"></rect></defs><g><g><g clip-path="url(#exQnb1iFSAv37)"><g><g transform="translate(0 0.000001)" clip-path="url(#exQnb1iFSAv35)"><rect width="502.29" height="649.28" rx="0" ry="0" transform="matrix(.359-.9333 0.9333 0.359-136.646996 301.061806)" fill="#f2f8ff"></rect><g><rect width="3.43" height="67.25" rx="0" ry="0" transform="matrix(.6259-.7799 0.7799 0.6259-117.716622 233.986815)" fill="#e6e6e6"></rect><rect width="2.67" height="66.48" rx="0" ry="0" transform="matrix(.6259-.7799 0.7799 0.6259-117.184418 233.929295)" fill="#fff"></rect><rect width="2.67" height="81.32" rx="0" ry="0" transform="matrix(.4985-.8669 0.8669 0.4985-90.371085 142.513518)" fill="#fff"></rect><polygon points="59.02,276.67 32.63,293.24 30.81,290.34 57.21,273.76 69.99,265.95 54.51,236.63 57.55,235.03 74.52,267.2" fill="#fff"></polygon><polygon points="64.86,193.51 33.37,175.75 6.66,219.51 -22.62,195.61 -20.45,192.96 5.79,214.37 30.38,174.07 -4.12,154.61 -2.44,151.63 66.54,190.53" fill="#fff"></polygon><polygon points="-24.17,195.27 -45.05,184.18 -61.33,206.19 -70.55,199.57 -80.06,211.18 -82.71,209.01 -71.16,194.9 -62.08,201.44 -48.12,182.55 -91.25,159.65 -89.64,156.62 -22.56,192.24" fill="#fff"></polygon><path d="M145.93,418.09l-.09-.37c-1.72-6.82-15.75-48.77-18.8-57.87l-27.23,1.24-.16-3.42l29.82-1.36.41,1.23c.71,2.11,17.34,51.67,19.28,59.35l.09.37-3.32.83Z" fill="#e6e6e6"></path><path d="M129.51,357.65l-.32-.95-29.15,1.33.12,2.66l27.14-1.24c2.37,7.08,17.14,51.2,18.9,58.17l2.58-.65c-1.92-7.64-18.56-57.21-19.27-59.32Z" fill="#fff"></path><rect width="3.43" height="54.51" rx="0" ry="0" transform="matrix(.5408-.8412 0.8412 0.5408 13.559439-106.821652)" fill="#e6e6e6"></rect><rect width="2.67" height="53.75" rx="0" ry="0" transform="matrix(.5407-.8412 0.8412 0.5407 14.083586-106.925573)" fill="#fff"></rect><rect width="3.43" height="59.22" rx="0" ry="0" transform="matrix(.5608-.828 0.828 0.5608 22.360013-129.821493)" fill="#e6e6e6"></rect><rect width="2.67" height="58.46" rx="0" ry="0" transform="matrix(.5608-.828 0.828 0.5608 22.886757-129.922729)" fill="#fff"></rect><path d="M516.32,442.42c-1.01.58-3.1,1.78-50.51-.66-20.83-1.07-41.29-2.38-45.63-2.66l-5.63,5.58-5.33,9.05c2.85,2.61,5.05,4.15,6.2,4.34c4.19.69,31.06,5.58,31.32,5.63l.21.04.2.09c10.79,4.94,39.04,17.87,40.17,18.31l.36.14-1.23,3.2-.36-.14c-1.4-.54-36-16.39-40.18-18.3l-.95-.17-12.63,41.18c2.23,2.13,13.3,9.73,21.44,15.32c7.53,5.17,14.04,9.64,15.86,11.24l.29.25-2.26,2.58-.29-.25c-1.66-1.46-8.4-6.08-15.52-10.98-9.88-6.79-17.21-11.86-20.6-14.61l-2.81,9.17-3.28-1.01l3.37-11c-2.48-3.08-9.71-10.66-12.33-13.37l-.12-.14-10.37-13.79-6.48-12.12c-10.76,10.17-26.84,26.05-28,29.07l-.13.35-.36-.09-2.87-1.03.15-.42c1.87-4.86,25.49-27.2,30.32-31.74l6.56-11.13c-2.51-2.47-4.53-4.76-4.92-5.2l-.12-.14-.09-.16c-.66-1.21-16.03-29.38-17.73-32-1.66-2.56-10.56-16.4-11.51-17.88l-19.74-4.85-6.85-2.15-10.59-63.78-17.57,2.46-20.33-.7-18.76-.87-36.36-10.36c-5.78,16.21-11.51,32.21-13.14,36.75l-.14.4-17.67,30.37l42.12,29.7-1.97,2.8L198.7,382.9l-18.27,47.49-3.2-1.23l18.58-48.3-76.74-54.1l1.97-2.8l43.64,30.76l10.36-44.45.24-1.25-43.7-6.77.52-3.39l43.81,6.79l7.25-38.14-24.35-13.52l1.66-3l26.51,14.72-7.69,40.46l19.6,3.04l39.16,5.64c8.48-23.79,13.21-37.2,13.69-38.83.06-.41.24-.9.48-1.57.27-.74.66-1.8,1.17-3.15.3-.79.64-1.68,1.03-2.68.72-1.88,1.6-4.13,2.6-6.72c2.63-6.76,5.31-13.53,5.33-13.59l.14-.35l3.19,1.26-.14.35c-2.34,5.93-5.67,14.39-7.96,20.36-1.8,4.69-2.33,6.17-2.45,6.58-.05.34-.18.73-.34,1.21-.2.59-.49,1.46-.87,2.55-.72,2.08-1.77,5.09-3.14,8.97-2.25,6.37-5.38,15.18-9.31,26.21l35.76,10.19l18.34.85l20.02.69l17.19-2.41-4.11-24.78l5.3-13.78l3.2,1.23-4.97,12.91l3.97,23.94.47-.07L366,303.35l22.6-20.13-21.07-14.13-18.96,24.09-2.69-2.12l19.92-25.31l30.39-43.13c.07-.09,6.75-9.82,12.18-23.93.87-2.27,1.68-4.56,2.38-6.8l-50.99-29.64l1.72-2.96l50.27,29.22c6.78-24.16,3.56-44.37-9.6-60.07l-.09-.11-35.53-51.51c-6.72-6.37-17.77-16.75-19.09-17.76-1.97-.98-15.83-8.56-21.72-11.79L304.27,36.74L274.94,20.98c-1.18-.44-10.72-3.99-23.16-8.45l-2.7,5.92-26.81,37.03c4.14,4.27,7.04,7.03,7.79,7.43c2.37.81,14.96,9.25,25.12,16.2l.31.21-1.94,2.83-.31-.22c-8.98-6.14-22.33-15.04-24.1-15.74-.64-.11-1.61-.4-8.92-7.91L198.25,88.62l-2.78-2.01L217.8,55.77c-3.14-3.28-5.96-6.33-6.56-6.99-.76-.58-16.84-12.8-20.25-15.3-3.37-2.47-19.77-17.32-21.95-19.29L137.61,4.83l-12.26-.92-4.35.37c-10.99,5.36-28.62-.74-52.4-18.15-17.3-12.67-31.8-27.03-32.41-27.64L-5.72,-79.69l2.31-2.53l41.99,38.25c.16.16,14.61,14.57,32.07,27.35C93.21,-0.11,110.19,6.01,119.77,1.07c25.05-12.91,69.05-11.65,70.91-11.59l.14.01c8.53,1.05,36.8,10.74,59.16,18.73L290.7,-81.1l3.12,1.42-40.6,89.06c12.87,4.63,22.63,8.27,23.04,8.42l.11.04l29.5,15.85l21.47,10.54c7.9,4.33,20.73,11.33,21.63,11.75.35.14,1.02.42,20.06,18.46l.13.12l35.69,51.74c.11.13.23.29.36.44L507.38,40.07l-19.47-16.8L458.23,5.8L427.24,-6.12L395.03,-27.1L361.64,17.7l-2.75-2.05l33.26-44.62-40.4-26.31l1.87-2.87l40.58,26.42l8.16-10.95l2.75,2.05-8.03,10.77L428.81,-9.2L459.72,2.7l30.19,17.79l20.11,17.35l25.89-21.96l2.22,2.61-25.48,21.62l8.6,7.43l19.27,4.12l26.45-23.79l2.29,2.55-24.8,22.31c9.99,3.22,18.57,5.56,20.29,5.53.68-.33,1.76-.44,6.11,1.17l21.67-36.17l2.94,1.76L574.1,60.7c.73.3,1.51.63,2.33.98c4.11,1.76,8.15,3.66,9.02,4.07c2.83.69,26.38,6.41,43.38,11.29l33.45-30.65l2.32,2.53-31.92,29.25c7.22,2.15,11.64,3.75,13.14,4.74l.32.21-1.9,2.86-.32-.21c-1.38-.92-6.15-2.56-14.19-4.9L590.2,117.09l44.94,3.29-.25,3.42-48.16-3.53-19.25,17.64l1.22,24.06-3.42.17-1.3-25.67L582,119.9l-13.83-1.01-93.33,44.67l60.83,23.4c.12.05,15.26,6.69,30.43,13.4c8.83,3.91,15.9,7.05,21,9.34c10.05,4.51,10.09,4.58,10.46,5.16l.2.32-2.27,1.42-.35.57c-1.67-1.03-37.27-16.74-60.79-27.05L466.2,163.91l68.34-32.71L506.4,86.97l-34.26,30.82-56.28,28.72c1.23,4,2.06,8.19,2.45,12.48.89,9.62-.26,20.08-3.43,31.11l61.46,26.47l49.63,19.09l56.6,15.93-.93,3.3-56.75-15.97-49.87-19.18-61.14-26.34c-.7,2.17-1.47,4.36-2.3,6.51-5.57,14.48-12.5,24.58-12.57,24.68l-29.42,41.75l21.66,14.53l18.65-16.61l2.28,2.56-44.02,39.21-12.92,9.2l17.46,44.12-.86,11.73l6.2,10l9.71-1.43.55,1.13c1.3,2.69,7.78,16.34,7.22,20.67-.04.3-.11.58-.22.86-1.06,2.76-5.3,4.11-9.4,5.42-1.41.45-3.47,1.1-4.57,1.66c1.64,2.54,3.03,4.7,3.59,5.56c1.75,2.69,16.04,28.88,17.77,32.05c1.2,1.37,2.61,2.87,4.01,4.27l5.15-8.73l13.54-13.42l19.38-9.52l34.62-19.34l21.32-16.42l19.2-21.92l12.45-32.38l7.76-3.35l1.36,3.15-6.44,2.78-12.15,31.6-19.82,22.63-21.87,16.83-34.87,19.47-18.92,9.3-3.95,3.91c42.03,2.71,88.07,4.85,91.27,3.52l.15.35.29-.17l1.51,2.64-.36.22ZM625.84,79.74c-14.15-3.98-32.6-8.59-41.39-10.71l-.17-.04-.16-.08c-4-1.9-8.39-3.85-11.82-5.24l-8.03,13.41l5.1,38.47l16.11,1.18l40.36-36.99ZM418.74,493.07c.83.86,7.29,7.55,10.99,11.78l11.85-38.62c-7.32-1.33-23.58-4.28-26.71-4.79-1.73-.28-4.23-1.87-7.42-4.71l-5.8,9.85l6.96,13.01l10.13,13.48ZM565.98,116.14l-5.28-39.8l8.34-13.93c-1.98-.71-2.79-.88-3.12-.91-.91.4-2.85.4-13.38-2.7-5.22-1.54-10.36-3.21-11.04-3.43L508.96,84.64l28.67,45.07l28.35-13.57ZM537.37,54.48L519.68,50.7L510,42.35L407.3,129.47c3.11,4.27,5.61,8.89,7.43,13.75l55.43-28.28l67.21-60.46ZM379.46,406.52c1.35-.77,3.23-1.37,5.38-2.05c2.2-.7,6.77-2.16,7.23-3.36.01-.03.02-.06.02-.09.28-2.14-2.97-10.43-6.36-17.6l-9.44,1.39-7.97-12.85.88-12.05-16.86-42.61-14.39,10.24-1.22.17l10.23,61.61l4.78,1.5l20.92,5.13.37.57c.05.08,3.31,5.14,6.43,10ZM223.92,354.39c3.1-8.66,8.12-22.68,12.96-36.26l-38.5-5.55-19.73-3.06-.28,1.46-10.69,45.84l38.87,27.4l17.37-29.83ZM248.55,11.37c-22.07-7.89-49.9-17.43-58.07-18.46-1.49-.04-36.84-.9-61.34,7.87l9.12.69l32.53,9.69.29.26c.77.7,18.66,16.9,21.97,19.33c3.28,2.41,18.62,14.06,20.36,15.38l.17.13.1.11c2.03,2.2,4.16,4.48,6.19,6.6l26.25-36.26l2.43-5.34Z" fill="#fff"></path><rect width="3.43" height="47.8" rx="0" ry="0" transform="matrix(.8858-.4641 0.4641 0.8858 122.918472 227.162561)" fill="#fff"></rect><path d="M363.34,445.2l1.37.98-9.08,7.11c-10.15,10.99-25.56,27.83-26.46,29.28l-.19.31-2.98-1.65.18-.33c.92-1.7,19.2-21.57,27.03-30.04l.18-.17l5.61-4.4-18.9-13.55-17.03-10.19c-1.25,1.48-3.11,3.64-5.49,6.41-9.82,11.37-26.25,30.4-29.31,37.64l-.15.35-3.16-1.33.15-.35c3.27-7.74,19.28-26.28,29.87-38.55c1.91-2.21,3.72-4.31,5.11-5.95L268.5,389.9l1.76-2.94l51.98,31.12c-.95-3.75-7.62-23.16-11.69-34.79l-.09-.24-.73-19.29L282,356.07l.92-3.3l30.15,8.36.8,21.28c.77,2.21,3.38,9.69,5.93,17.15c6.11,17.92,6.03,18.55,5.95,19.15-.02.12-.04.26-.1.43-.08.2-.21.43-.42.74l16.75,10.03.07.05l18.31,13.13l25.41-16.81l1.89,2.86-24.32,16.06Z" fill="#e6e6e6"></path><path d="M359.63,446.29l-5.99,4.69-.16.14c-6.09,6.6-26.05,28.25-26.97,29.96l2.33,1.29c.92-1.47,16.34-18.33,26.52-29.36l8.7-6.82-1.4-1.01L387.12,429l-1.47-2.22-25.31,16.74-18.52-13.28-.04-.03-17.11-10.24c.37-.49.54-.77.62-.99.05-.13.07-.23.08-.34.07-.51.15-1.14-5.94-18.98-2.72-7.96-5.48-15.88-5.94-17.2l-.79-21.06-29.51-8.18-.71,2.57l27.63,7.66.74,19.51.07.19c4.28,12.22,11.04,31.93,11.76,35.05-.08.1-.18.24-.29.38l-51.98-31.12-1.37,2.29l51.64,30.91c-1.42,1.69-3.38,3.95-5.4,6.3-10.58,12.25-26.56,30.76-29.81,38.45l2.46,1.04c3.08-7.3,19.54-26.36,29.37-37.74c2.72-3.15,4.51-5.23,5.7-6.65l17.34,10.38l19.29,13.85Z" fill="#fff"></path><path d="M426.29,429.03l-32.83-45.8l11.69-8.11c.37-.3,9.66-7.73,12.18-10.31c2.73-2.8,27.88-22.67,28.95-23.52l.3-.24l2.12,2.69-.3.24c-9,7.11-26.57,21.11-28.62,23.22-2.74,2.81-12.15,10.33-12.55,10.64l-.08.06-8.88,6.16l30.81,42.97-2.79,2Z" fill="#e6e6e6"></path><path d="M393.99,383.33l32.39,45.18l2.17-1.55-30.81-42.98l9.18-6.37.07-.05c.4-.32,9.81-7.84,12.51-10.61c2.07-2.12,19.65-16.14,28.66-23.25l-1.65-2.09c-1.07.84-26.21,20.71-28.92,23.48-2.51,2.58-11.6,9.85-12.23,10.36l-11.37,7.88Z" fill="#fff"></path><rect width="3.43" height="107.87" rx="0" ry="0" transform="matrix(.7386-.6741 0.6741 0.7386 83.952104-118.858689)" fill="#e6e6e6"></rect><rect width="2.67" height="107.11" rx="0" ry="0" transform="matrix(.7387-.6741 0.6741 0.7387 84.494942-118.857718)" fill="#fff"></rect><path d="M100.24,286.81c-.49.51-48.64,50.91-54.89,61.91l8.41,31.78-3.31.88-8.01-30.27c-2.13.34-6.66-.42-20.4-9.33-7.79-5.05-17.74-12.18-29.57-21.2l-46.25,20.88-1.41-3.12l44.57-20.12c-20.58-15.82-39.88-31.97-40.07-32.13l-.29-.24l2.2-2.63.29.24c.2.17,20.21,16.91,41.42,33.15l19.67-8.88-45.91-35.87l2.11-2.7l47.02,36.73l14.11-12.55l2.28,2.56-16.25,14.45-.31-.24-19.63,8.86c36.74,27.89,44.44,29.05,45.93,28.74.03-.01.05-.01.07-.02c4.96-9.88,49.47-56.67,55.18-62.66l-.47-3.56L68.3,234.94l2.92-1.79l28.81,47.15.78,5.9-.57.61Z" fill="#fff"></path></g><polygon points="570.03,344.65 513.69,320.89 467.57,299.47 360.61,246.49 274.1,203.82 221.33,174.76 209.84,169.59 196.03,192.89 165.72,252.61 84.88,392.2 76.31,387.23 157.01,247.89 187.35,188.13 200.75,165.5 180.63,156.45 119.78,123.23 59.27,90.99 -17.1,53.55 -82.51,157.84 -90.89,152.58 -26.04,49.17 -46.04,39.37 -41.68,30.48 -20.75,40.74 16.29,-18.33 111.42,-170.62 119.81,-165.37 24.69,-13.08 -11.81,45.12 63.8,82.19 124.5,114.52 185.03,147.58 205.83,156.93 211.82,146.83 254.48,69.85 318.68,-42.96 336.54,-74.04 345.13,-69.11 327.28,-38.05 263.1,74.72 220.41,151.76 214.92,161.02 225.76,165.9 278.68,195.04 365,237.61 471.89,290.56 517.78,311.87 573.87,335.52" fill="#fff"></polygon><g><path d="M620.34,161.72c-.2-.02-19.92-1.75-41.28,3.54-25.83,6.4-42.83,19.8-50.54,39.85-.67,1.75-1.28,3.57-1.81,5.41l-.05.18-19.03,46.4l64.53,30.04-2.89,6.21-64.24-29.91-35.68,87.02l63.24,33.71-3.22,6.05-91.39-48.71-93.52-47.39-20.14-10.34-15.44,31.57L293,337.61l-20.24,52.62-37.85,55.2-5.65-3.88l37.39-54.54l20.26-52.68l16.04-22.49l15.25-31.19L289.67,266l-3.9,5.72-6.92,31.77-44.06-5.51-89.71-13.93l1.05-6.77l89.65,13.92l37.71,4.72l5.87-26.96l4.17-6.12-46.77-24.02-65.18-34.09-34.93,22.32-41.6,5.32-28.58,6.27-22.9,2.14-25.96,4.99-21.5,15.62l15.43,11.72l87.44,60.95l8.66,5.96-3.89,5.64-8.67-5.97L7.51,278.67l-21.44-16.29-4.2-1.62c-14.5,10.95-26.77,20.79-28.1,22.53-.67,1.08-1.75,1.84-3.05,2.13-3.89.86-10.66-3.13-14.74-5.87l-32.21,42.73-5.47-4.13l39.83-52.84l13.82-28.85-.24-.18-61.99-36.43l3.47-5.91l61.75,36.29l18.3-38.2L7.06,126.4l1.92-3.59-28.79-14.48-49.26-23.5l2.95-6.19l49.35,23.54l28.99,14.58L39.16,66.51L62.54,22.78L-26,-18.35l2.89-6.22L65.24,16.46L89.92,-47.7l57.15,14.19l2.66,1.02c.72-1.44,1.7-3.36,2.84-5.63c2.54-5.03,5.93-11.73,9.32-18.43c5.26-10.4,10.52-20.79,12.62-24.92L146.03,-99.3l-19.58-15.01-.2-.21c-1.28-1.38-12.61-13.57-14.8-16.49-1.65-2.19-16.99-19.93-24.87-29l-.5-.58l5.17-4.5.5.57c.23.26,22.93,26.4,25.17,29.37c1.65,2.19,10.73,12.05,14.15,15.73l18.86,14.46l27.25,17.05l13.85-36l6.4,2.46-14.33,37.24l14.24,8.91l22.15-42.97l6.09,3.14-22.41,43.48l2.23,1.4.06.04c9.7,6.84,32.37,22.82,33.3,23.58c1.21.99,17.59,13.65,20.74,15.56c2.91.47,13.25,2.47,16.4,3.08l.38.07l44.3,19.53.3.22c7.24,5.32,18.64,13.67,20.83,15.2c3.05.95,20.99,6.4,30.17,9.19l.62.19l12.45,9.9l42.13-56.24l5.49,4.11-42.33,56.51l34.32,33.35l36.03-49.69l13.24-34.41l6.4,2.46-13.56,35.25L429.52,68.9l22.64,22c18.02,10.44,27.16,27.34,26.43,48.89-.4,11.92-3.65,21.99-5.56,26.93-.57,1.48-.96,2.35-1.04,2.51l-.09.19-30.8,56.74l60.29,28.07l18.76-45.76c.56-1.94,1.21-3.87,1.92-5.72c4.42-11.49,11.68-21.14,21.56-28.69c9.14-6.98,20.55-12.18,33.9-15.47c22.5-5.54,42.58-3.76,43.42-3.68l.76.07-.64,6.82-.73-.08ZM498.8,260.56l-61.49-28.62-22.27,33.83-5.73-3.77l21.72-32.98-8.88-4.14-15.85-8.16-54.04-31.03-4.61-3.58-15.52,21.7-38.56,56.5l27.65,14.2l21.19-43.34l6.16,3.01-21.25,43.47l20.24,10.4l93.59,47.43l22.11,11.79l35.54-86.71Zm-32.98-94.28c.09-.21.37-.87.76-1.87c1.44-3.74,4.82-13.66,5.18-25.02.6-19.2-7.26-33.58-23.37-42.77l-.38-.22-22.55-21.9-62.47,86.15-11.35,15.87l4.45,3.46l53.55,30.75l15.53,8l9.68,4.5.32-.49l30.65-56.46Zm-108.39-9.64l63.06-86.97-34.4-33.42L350.55,83.7L307.5,142.6l1.78,1.02l36.94,28.7l11.21-15.68Zm-30.91,43.21l15.71-21.96-36.77-28.57-2.02-1.16-4.44,6.08-.17.29c-6.89,11.5-41.16,68.75-49.7,82.95l38.3,19.67l39.09-57.3ZM345.04,79.62l35.81-47.8-11.59-9.2c-29.82-9.06-30.15-9.19-30.31-9.25-.53-.21-.77-.3-21.82-15.77l-42.91-18.92c-7.17-1.39-15.21-2.91-16.05-3.01-1.13-.1-1.7-.15-12.79-8.55-5.17-3.92-10.45-8.03-10.97-8.45-.96-.75-20.15-14.29-32.81-23.22l-1.57-.98-1.79,3.47-21.02,45.07-8.88,14.58-28.2,57.06L176.6,73.74l80.21,39.84l44.7,25.58l43.53-59.54ZM243.01,234.34c8.87-14.75,49.76-83.06,50.18-83.75l.15-.23l4.1-5.61-43.86-25.1-80.12-39.79L137.1,60.81l-7.35,14.87-28.41,52.62L87.9,154.82l78.3,39.38l73.72,38.56l3.09,1.58Zm-78.43-33.26l-1.53-.8L84.8,160.93L71.01,188.1L48.85,233.41l16.56-1.55l28.46-6.24l40.38-5.16l30.33-19.38Zm27.53-266.19l2.09-4.05-13.85-8.66c-8.12,16.03-22.02,43.49-25.2,49.81l2.33,5.85L145,-26.97L94.14,-39.59L71.47,19.36l11,5.11l51.6,27.01L162.33,-5.7l8.84-14.51l20.94-44.9ZM95.29,125.09l28.37-52.56l7.36-14.9-51.6-27.01-10.66-4.95L45.21,69.74l-26.85,50.1l63.42,31.89l13.51-26.64ZM64.88,185.03l13.79-27.18-63.56-31.96-1.99,3.71-33.76,65.51-18.81,39.28l28.89,21.95l1.3.5l24.08-17.49l25.95-4.99l24.11-49.33ZM-51.19,278.62c3.96-4.26,19.07-15.88,28.43-22.94l-19.71-14.97-13.51,28.2-3.9,5.17c3.66,2.41,7.12,4.12,8.69,4.54Z" fill="#fff"></path></g><clipPath id="exQnb1iFSAv35"><use width="502.290009" height="649.280029" xlink:href="#exQnb1iFSAv3" transform="matrix(.359-.9333 0.9333 0.359-136.646996 301.061806)"></use></clipPath></g></g><clipPath id="exQnb1iFSAv37"><use width="483.200012" height="335.360016" xlink:href="#exQnb1iFSAv2"></use></clipPath></g></g></g><g id="exQnb1iFSAv39" opacity="0"><polygon points="166.1,201.02 134.25,220.46 94.01,226.38 67.42,232.21 48.85,233.41 84.79,160.93 111.86,107.66 43.35,72.2 68.59,25.32 298.77,143.11 242.88,233.86 170.16,197.2" opacity="0.34" fill="#407ee1"></polygon></g><g><polygon id="exQnb1iFSAv42" points="166.1,201.02 134.25,220.46 94.01,226.38 67.42,232.21 48.85,233.41 84.79,160.93 112.16,107.96 43.65,72.5 68.89,25.62 298.47,142.81 242.58,234.16 170.16,197.2" fill="none" stroke="#407ee1" stroke-width="3" stroke-miterlimit="10" stroke-dashoffset="846.46" stroke-dasharray="846.46"></polygon></g><g id="exQnb1iFSAv43" opacity="0"><g><path d="M136.44,149.91c-1.11,0-2.12-.29-3.02-.88s-1.61-1.41-2.14-2.47-.79-2.29-.79-3.7c0-1.11.16-2.11.49-3c.33-.88.78-1.64,1.36-2.26s1.27-1.1,2.05-1.43c.79-.33,1.64-.49,2.56-.49c1.28,0,2.35.28,3.21.83.87.55,1.54,1.43,2.02,2.62l-2.54.59c-.36-.58-.77-1.03-1.24-1.33s-.99-.46-1.58-.46c-.67,0-1.29.2-1.84.59-.55.4-1,.96-1.33,1.7s-.49,1.61-.49,2.63c0,.95.15,1.79.44,2.5.29.72.7,1.27,1.23,1.67s1.14.6,1.83.6c.59,0,1.12-.13,1.58-.39.47-.26.83-.64,1.1-1.13s.4-1.08.4-1.78h.55c0,1.14-.13,2.12-.4,2.96s-.69,1.48-1.26,1.94-1.3.69-2.19.69Zm3.66-.29l-.36-3.01v-2.36l-3.07-.06v-1.58h5.45v7h-2.02Z" fill="#fff"></path><path d="M149.5,149.91c-.87,0-1.67-.22-2.39-.67s-1.3-1.08-1.74-1.89c-.43-.81-.65-1.76-.65-2.84c0-1.12.22-2.09.65-2.89.43-.81,1.01-1.42,1.73-1.85s1.52-.64,2.4-.64c.81,0,1.52.16,2.11.49s1.07.77,1.43,1.33.6,1.19.73,1.89.13,1.42.02,2.17h-7.09v-1.35h5.33l-.48.32c.02-.33.01-.66-.05-1-.05-.34-.15-.65-.3-.93s-.36-.51-.63-.68-.62-.26-1.04-.26c-.5,0-.93.13-1.28.38s-.62.6-.8,1.03c-.18.44-.27.93-.27,1.47v.99c0,.57.09,1.08.26,1.52s.43.79.77,1.04.77.38,1.29.38c.48,0,.89-.11,1.22-.34.33-.22.54-.56.63-1.01h2.5c-.11.66-.35,1.24-.74,1.74s-.89.89-1.51,1.18c-.61.28-1.31.42-2.1.42Z" fill="#fff"></path><path d="M160.86,149.91c-.93,0-1.78-.2-2.53-.6s-1.35-1-1.79-1.79c-.44-.8-.66-1.79-.66-2.99c0-1.22.22-2.23.66-3.03s1.04-1.4,1.79-1.79s1.6-.59,2.53-.59c.92,0,1.75.2,2.5.59s1.34.99,1.78,1.79.66,1.81.66,3.03c0,1.2-.22,2.2-.66,2.99s-1.04,1.39-1.78,1.79c-.75.4-1.58.6-2.5.6Zm-.09-2.16c.49,0,.93-.12,1.31-.36s.68-.6.9-1.08.33-1.07.33-1.78c0-1.08-.21-1.89-.64-2.44s-1-.82-1.74-.82c-.5,0-.94.12-1.33.36s-.69.6-.91,1.09c-.22.48-.33,1.09-.33,1.81c0,1.07.22,1.87.65,2.41.44.54,1.03.81,1.76.81Z" fill="#fff"></path><path d="M174.07,149.62v-13.65h8.6v2.15h-6.12v3.6h5.6v2.12h-5.6v5.78h-2.48Z" fill="#fff"></path><path d="M188.7,149.91c-.87,0-1.67-.22-2.39-.67s-1.3-1.08-1.74-1.89c-.43-.81-.65-1.76-.65-2.84c0-1.12.22-2.09.65-2.89.43-.81,1.01-1.42,1.73-1.85s1.52-.64,2.4-.64c.81,0,1.52.16,2.11.49s1.07.77,1.43,1.33.6,1.19.73,1.89.13,1.42.02,2.17h-7.09v-1.35h5.33l-.48.32c.02-.33.01-.66-.05-1-.05-.34-.15-.65-.3-.93s-.36-.51-.63-.68-.62-.26-1.04-.26c-.5,0-.93.13-1.28.38s-.62.6-.8,1.03c-.18.44-.27.93-.27,1.47v.99c0,.57.09,1.08.26,1.52s.43.79.77,1.04.77.38,1.29.38c.48,0,.89-.11,1.22-.34.33-.22.54-.56.63-1.01h2.5c-.11.66-.35,1.24-.74,1.74s-.89.89-1.51,1.18c-.62.28-1.32.42-2.1.42Z" fill="#fff"></path><path d="M196.04,149.62v-10.2h2.17l.32,2.02v8.18h-2.49Zm7,0v-5.97c0-.76-.18-1.33-.55-1.71-.36-.39-.84-.58-1.43-.58-.5,0-.94.14-1.32.41s-.68.69-.9,1.24-.33,1.24-.33,2.06h-.82c0-1.33.16-2.43.49-3.31s.8-1.54,1.4-1.97s1.31-.65,2.12-.65c.84,0,1.54.19,2.11.56s.99.9,1.27,1.58.43,1.47.43,2.38v5.97h-2.47Z" fill="#fff"></path><path d="M213.01,149.91c-.86,0-1.65-.22-2.38-.67-.73-.44-1.33-1.07-1.78-1.88s-.68-1.76-.68-2.86c0-1.16.23-2.14.68-2.94s1.04-1.41,1.78-1.82c.73-.41,1.53-.62,2.38-.62.67,0,1.25.11,1.76.32s.94.5,1.3.86.64.76.84,1.2.33.89.39,1.34l-2.5.06c-.11-.45-.32-.82-.63-1.11s-.7-.44-1.18-.44c-.4,0-.77.11-1.13.33-.35.22-.64.56-.86,1.03-.22.46-.33,1.06-.33,1.8c0,.7.1,1.28.31,1.75s.49.82.84,1.05.74.35,1.17.35c.63,0,1.09-.15,1.38-.46s.43-.71.43-1.23h2.5c0,.72-.17,1.38-.49,1.98-.33.6-.81,1.07-1.45,1.42s-1.42.54-2.35.54Z" fill="#fff"></path><path d="M224.09,149.91c-.87,0-1.67-.22-2.39-.67s-1.3-1.08-1.74-1.89c-.43-.81-.65-1.76-.65-2.84c0-1.12.22-2.09.65-2.89.43-.81,1.01-1.42,1.73-1.85s1.52-.64,2.4-.64c.81,0,1.52.16,2.11.49s1.07.77,1.43,1.33.6,1.19.73,1.89.13,1.42.02,2.17h-7.09v-1.35h5.33l-.48.32c.02-.33.01-.66-.05-1-.05-.34-.15-.65-.3-.93s-.36-.51-.63-.68-.62-.26-1.04-.26c-.5,0-.93.13-1.28.38s-.62.6-.8,1.03c-.18.44-.27.93-.27,1.47v.99c0,.57.09,1.08.26,1.52s.43.79.77,1.04.77.38,1.29.38c.48,0,.89-.11,1.22-.34.33-.22.54-.56.63-1.01h2.5c-.11.66-.35,1.24-.74,1.74s-.89.89-1.51,1.18c-.62.28-1.32.42-2.1.42Z" fill="#fff"></path></g></g><g id="exQnb1iFSAv53_ts" transform="translate(221.738587,103.871853) scale(0,0)"><g transform="translate(-221.738581,-103.871847)"><g><g><g id="exQnb1iFSAv56_ts" transform="translate(221.871095,102.827651) rotate(-76.484878) scale(0.5,0.5)"><ellipse id="exQnb1iFSAv56" rx="6.24" ry="6.24" transform="translate(0,0)" opacity="0" fill="#1469e2"></ellipse></g><ellipse rx="5.29" ry="5.29" transform="matrix(.2331-.9725 0.9725 0.2331 221.876827 102.814479)" opacity="0.4" fill="#1469e2"></ellipse><ellipse rx="4.54" ry="4.54" transform="matrix(.2326-.9726 0.9726 0.2326 221.870403 102.815849)" opacity="0.6" fill="#1469e2"></ellipse><g><ellipse rx="3.88" ry="3.88" transform="matrix(.2322-.9727 0.9727 0.2322 221.873997 102.816595)" fill="#407ee1"></ellipse><path d="M221.86,106.83c-2.21,0-4.01-1.8-4.01-4.01s1.8-4.01,4.01-4.01s4.01,1.8,4.01,4.01c.01,2.21-1.79,4.01-4.01,4.01Zm0-7.75c-2.06,0-3.74,1.68-3.74,3.74s1.68,3.74,3.74,3.74s3.74-1.68,3.74-3.74-1.68-3.74-3.74-3.74Z" fill="#fff"></path></g></g><g><path d="M230.12,91.33c1.34-1.74,2.14-3.91,2.14-6.27c0-5.7-4.62-10.31-10.31-10.31-5.7,0-10.32,4.62-10.32,10.31c0,2.36.8,4.52,2.13,6.26l8.18,11.96l8.18-11.95Z" fill="#ff4a2d"></path><ellipse rx="7.95" ry="7.96" transform="matrix(.002591-1 1 0.002591 221.945042 85.057469)" fill="#fff"></ellipse><ellipse rx="3.35" ry="3.35" transform="matrix(.2318-.9728 0.9728 0.2318 221.738587 84.656015)" fill="#ff4a2d"></ellipse></g></g></g></g><g id="exQnb1iFSAv66_ts" transform="translate(131.658586,59.407761) scale(0,0)"><g transform="translate(-221.738581,-103.871847)"><g><g><g id="exQnb1iFSAv69_ts" transform="translate(221.871095,102.827651) rotate(-76.484878) scale(0.5,0.5)"><ellipse id="exQnb1iFSAv69" rx="6.24" ry="6.24" transform="translate(0,0)" opacity="0" fill="#1469e2"></ellipse></g><ellipse rx="5.29" ry="5.29" transform="matrix(.2331-.9725 0.9725 0.2331 221.876827 102.814479)" opacity="0.4" fill="#1469e2"></ellipse><ellipse rx="4.54" ry="4.54" transform="matrix(.2326-.9726 0.9726 0.2326 221.870403 102.815849)" opacity="0.6" fill="#1469e2"></ellipse><g><ellipse rx="3.88" ry="3.88" transform="matrix(.2322-.9727 0.9727 0.2322 221.873997 102.816595)" fill="#407ee1"></ellipse><path d="M221.86,106.83c-2.21,0-4.01-1.8-4.01-4.01s1.8-4.01,4.01-4.01s4.01,1.8,4.01,4.01c.01,2.21-1.79,4.01-4.01,4.01Zm0-7.75c-2.06,0-3.74,1.68-3.74,3.74s1.68,3.74,3.74,3.74s3.74-1.68,3.74-3.74-1.68-3.74-3.74-3.74Z" fill="#fff"></path></g></g><g><path d="M230.12,91.33c1.34-1.74,2.14-3.91,2.14-6.27c0-5.7-4.62-10.31-10.31-10.31-5.7,0-10.32,4.62-10.32,10.31c0,2.36.8,4.52,2.13,6.26l8.18,11.96l8.18-11.95Z" fill="#ff4a2d"></path><ellipse rx="7.95" ry="7.96" transform="matrix(.002591-1 1 0.002591 221.945042 85.057469)" fill="#fff"></ellipse><ellipse rx="3.35" ry="3.35" transform="matrix(.2318-.9728 0.9728 0.2318 221.738587 84.656015)" fill="#ff4a2d"></ellipse></g></g></g></g><g id="exQnb1iFSAv79_ts" transform="translate(45.669883,73.348084) scale(0,0)"><g transform="translate(-221.738581,-103.871847)"><g><g><g id="exQnb1iFSAv82_ts" transform="translate(221.871095,102.827651) rotate(-76.484878) scale(0.5,0.5)"><ellipse id="exQnb1iFSAv82" rx="6.24" ry="6.24" transform="translate(0,0)" opacity="0" fill="#1469e2"></ellipse></g><ellipse rx="5.29" ry="5.29" transform="matrix(.2331-.9725 0.9725 0.2331 221.876827 102.814479)" opacity="0.4" fill="#1469e2"></ellipse><ellipse rx="4.54" ry="4.54" transform="matrix(.2326-.9726 0.9726 0.2326 221.870403 102.815849)" opacity="0.6" fill="#1469e2"></ellipse><g><ellipse rx="3.88" ry="3.88" transform="matrix(.2322-.9727 0.9727 0.2322 221.873997 102.816595)" fill="#407ee1"></ellipse><path d="M221.86,106.83c-2.21,0-4.01-1.8-4.01-4.01s1.8-4.01,4.01-4.01s4.01,1.8,4.01,4.01c.01,2.21-1.79,4.01-4.01,4.01Zm0-7.75c-2.06,0-3.74,1.68-3.74,3.74s1.68,3.74,3.74,3.74s3.74-1.68,3.74-3.74-1.68-3.74-3.74-3.74Z" fill="#fff"></path></g></g><g><path d="M230.12,91.33c1.34-1.74,2.14-3.91,2.14-6.27c0-5.7-4.62-10.31-10.31-10.31-5.7,0-10.32,4.62-10.32,10.31c0,2.36.8,4.52,2.13,6.26l8.18,11.96l8.18-11.95Z" fill="#ff4a2d"></path><ellipse rx="7.95" ry="7.96" transform="matrix(.002591-1 1 0.002591 221.945042 85.057469)" fill="#fff"></ellipse><ellipse rx="3.35" ry="3.35" transform="matrix(.2318-.9728 0.9728 0.2318 221.738587 84.656015)" fill="#ff4a2d"></ellipse></g></g></g></g><g id="exQnb1iFSAv92_ts" transform="translate(108.558524,116.539665) scale(0,0)"><g transform="translate(-221.738581,-103.871847)"><g><g><g id="exQnb1iFSAv95_ts" transform="translate(221.871095,102.827651) rotate(-76.484878) scale(0.5,0.5)"><ellipse id="exQnb1iFSAv95" rx="6.24" ry="6.24" transform="translate(0,0)" opacity="0" fill="#1469e2"></ellipse></g><ellipse rx="5.29" ry="5.29" transform="matrix(.2331-.9725 0.9725 0.2331 221.876827 102.814479)" opacity="0.4" fill="#1469e2"></ellipse><ellipse rx="4.54" ry="4.54" transform="matrix(.2326-.9726 0.9726 0.2326 221.870403 102.815849)" opacity="0.6" fill="#1469e2"></ellipse><g><ellipse rx="3.88" ry="3.88" transform="matrix(.2322-.9727 0.9727 0.2322 221.873997 102.816595)" fill="#407ee1"></ellipse><path d="M221.86,106.83c-2.21,0-4.01-1.8-4.01-4.01s1.8-4.01,4.01-4.01s4.01,1.8,4.01,4.01c.01,2.21-1.79,4.01-4.01,4.01Zm0-7.75c-2.06,0-3.74,1.68-3.74,3.74s1.68,3.74,3.74,3.74s3.74-1.68,3.74-3.74-1.68-3.74-3.74-3.74Z" fill="#fff"></path></g></g><g><path d="M230.12,91.33c1.34-1.74,2.14-3.91,2.14-6.27c0-5.7-4.62-10.31-10.31-10.31-5.7,0-10.32,4.62-10.32,10.31c0,2.36.8,4.52,2.13,6.26l8.18,11.96l8.18-11.95Z" fill="#ff4a2d"></path><ellipse rx="7.95" ry="7.96" transform="matrix(.002591-1 1 0.002591 221.945042 85.057469)" fill="#fff"></ellipse><ellipse rx="3.35" ry="3.35" transform="matrix(.2318-.9728 0.9728 0.2318 221.738587 84.656015)" fill="#ff4a2d"></ellipse></g></g></g></g><g id="exQnb1iFSAv105_ts" transform="translate(53.376456,227.886882) scale(0,0)"><g transform="translate(-221.738581,-103.871847)"><g><g><g id="exQnb1iFSAv108_ts" transform="translate(221.871095,102.827651) rotate(-76.484878) scale(0.5,0.5)"><ellipse id="exQnb1iFSAv108" rx="6.24" ry="6.24" transform="translate(0,0)" opacity="0" fill="#1469e2"></ellipse></g><ellipse rx="5.29" ry="5.29" transform="matrix(.2331-.9725 0.9725 0.2331 221.876827 102.814479)" opacity="0.4" fill="#1469e2"></ellipse><ellipse rx="4.54" ry="4.54" transform="matrix(.2326-.9726 0.9726 0.2326 221.870403 102.815849)" opacity="0.6" fill="#1469e2"></ellipse><g><ellipse rx="3.88" ry="3.88" transform="matrix(.2322-.9727 0.9727 0.2322 221.873997 102.816595)" fill="#407ee1"></ellipse><path d="M221.86,106.83c-2.21,0-4.01-1.8-4.01-4.01s1.8-4.01,4.01-4.01s4.01,1.8,4.01,4.01c.01,2.21-1.79,4.01-4.01,4.01Zm0-7.75c-2.06,0-3.74,1.68-3.74,3.74s1.68,3.74,3.74,3.74s3.74-1.68,3.74-3.74-1.68-3.74-3.74-3.74Z" fill="#fff"></path></g></g><g><path d="M230.12,91.33c1.34-1.74,2.14-3.91,2.14-6.27c0-5.7-4.62-10.31-10.31-10.31-5.7,0-10.32,4.62-10.32,10.31c0,2.36.8,4.52,2.13,6.26l8.18,11.96l8.18-11.95Z" fill="#ff4a2d"></path><ellipse rx="7.95" ry="7.96" transform="matrix(.002591-1 1 0.002591 221.945042 85.057469)" fill="#fff"></ellipse><ellipse rx="3.35" ry="3.35" transform="matrix(.2318-.9728 0.9728 0.2318 221.738587 84.656015)" fill="#ff4a2d"></ellipse></g></g></g></g><g id="exQnb1iFSAv118_ts" transform="translate(170.948576,196.436794) scale(0,0)"><g transform="translate(-221.738581,-103.871847)"><g><g><g id="exQnb1iFSAv121_ts" transform="translate(221.871095,102.827651) rotate(-76.484878) scale(0.5,0.5)"><ellipse id="exQnb1iFSAv121" rx="6.24" ry="6.24" transform="translate(0,0)" opacity="0" fill="#1469e2"></ellipse></g><ellipse rx="5.29" ry="5.29" transform="matrix(.2331-.9725 0.9725 0.2331 221.876827 102.814479)" opacity="0.4" fill="#1469e2"></ellipse><ellipse rx="4.54" ry="4.54" transform="matrix(.2326-.9726 0.9726 0.2326 221.870403 102.815849)" opacity="0.6" fill="#1469e2"></ellipse><g><ellipse rx="3.88" ry="3.88" transform="matrix(.2322-.9727 0.9727 0.2322 221.873997 102.816595)" fill="#407ee1"></ellipse><path d="M221.86,106.83c-2.21,0-4.01-1.8-4.01-4.01s1.8-4.01,4.01-4.01s4.01,1.8,4.01,4.01c.01,2.21-1.79,4.01-4.01,4.01Zm0-7.75c-2.06,0-3.74,1.68-3.74,3.74s1.68,3.74,3.74,3.74s3.74-1.68,3.74-3.74-1.68-3.74-3.74-3.74Z" fill="#fff"></path></g></g><g><path d="M230.12,91.33c1.34-1.74,2.14-3.91,2.14-6.27c0-5.7-4.62-10.31-10.31-10.31-5.7,0-10.32,4.62-10.32,10.31c0,2.36.8,4.52,2.13,6.26l8.18,11.96l8.18-11.95Z" fill="#ff4a2d"></path><ellipse rx="7.95" ry="7.96" transform="matrix(.002591-1 1 0.002591 221.945042 85.057469)" fill="#fff"></ellipse><ellipse rx="3.35" ry="3.35" transform="matrix(.2318-.9728 0.9728 0.2318 221.738587 84.656015)" fill="#ff4a2d"></ellipse></g></g></g></g><g id="exQnb1iFSAv131_ts" transform="translate(242.198508,235.310546) scale(0,0)"><g transform="translate(-221.738581,-103.871847)"><g><g><g id="exQnb1iFSAv134_ts" transform="translate(221.871095,102.827651) rotate(-76.484878) scale(0.5,0.5)"><ellipse id="exQnb1iFSAv134" rx="6.24" ry="6.24" transform="translate(0,0)" opacity="0" fill="#1469e2"></ellipse></g><ellipse rx="5.29" ry="5.29" transform="matrix(.2331-.9725 0.9725 0.2331 221.876827 102.814479)" opacity="0.4" fill="#1469e2"></ellipse><ellipse rx="4.54" ry="4.54" transform="matrix(.2326-.9726 0.9726 0.2326 221.870403 102.815849)" opacity="0.6" fill="#1469e2"></ellipse><g><ellipse rx="3.88" ry="3.88" transform="matrix(.2322-.9727 0.9727 0.2322 221.873997 102.816595)" fill="#407ee1"></ellipse><path d="M221.86,106.83c-2.21,0-4.01-1.8-4.01-4.01s1.8-4.01,4.01-4.01s4.01,1.8,4.01,4.01c.01,2.21-1.79,4.01-4.01,4.01Zm0-7.75c-2.06,0-3.74,1.68-3.74,3.74s1.68,3.74,3.74,3.74s3.74-1.68,3.74-3.74-1.68-3.74-3.74-3.74Z" fill="#fff"></path></g></g><g><path d="M230.12,91.33c1.34-1.74,2.14-3.91,2.14-6.27c0-5.7-4.62-10.31-10.31-10.31-5.7,0-10.32,4.62-10.32,10.31c0,2.36.8,4.52,2.13,6.26l8.18,11.96l8.18-11.95Z" fill="#ff4a2d"></path><ellipse rx="7.95" ry="7.96" transform="matrix(.002591-1 1 0.002591 221.945042 85.057469)" fill="#fff"></ellipse><ellipse rx="3.35" ry="3.35" transform="matrix(.2318-.9728 0.9728 0.2318 221.738587 84.656015)" fill="#ff4a2d"></ellipse></g></g></g></g></svg>